/* XPM */
static char *_9c749dc2eb64c46d47ced6da85acdf9[] = {
/* columns rows colors chars-per-pixel */
"16 16 70 1 ",
"  c black",
". c #07090A",
"X c #0C0C0D",
"o c #13100E",
"O c #121211",
"+ c #111314",
"@ c #151514",
"# c #1C1916",
"$ c #16191C",
"% c #1B1A1A",
"& c #191B1D",
"* c #1C1C1D",
"= c #221F1D",
"- c #292C2F",
"; c #2C2E30",
": c #2F3336",
"> c #313030",
", c #36383B",
"< c #3D3938",
"1 c #3F3D3C",
"2 c #474442",
"3 c #484441",
"4 c #686869",
"5 c #686C6F",
"6 c #77797A",
"7 c #7B7D7E",
"8 c #8C8885",
"9 c #878A8E",
"0 c #929293",
"q c #999693",
"w c gray61",
"e c gray64",
"r c #A6A5A4",
"t c #A7A8A8",
"y c #AAAAAA",
"u c #A9ACAF",
"i c gray68",
"p c #AEAEAE",
"a c #B3B1AF",
"s c gray70",
"d c #B3B5B7",
"f c #B4B4B4",
"g c #B6B6B6",
"h c #B9B6B3",
"j c #B7B8B9",
"k c #B9B9B9",
"l c #BBBBBB",
"z c #BCBAB8",
"x c #BCBCBC",
"c c gray75",
"v c #C0C0C0",
"b c #C1C1C1",
"n c #C2C2C3",
"m c #C3C3C3",
"M c gray77",
"N c #C6C6C6",
"B c #C8C8C8",
"V c #C9C9C8",
"C c #CACACA",
"Z c #CBCBCB",
"A c #CDCDCC",
"S c #CDCDCD",
"D c #D0D0D0",
"F c gray82",
"G c #D8D8D8",
"H c #DADADA",
"J c gray96",
"K c #F8F8F8",
"L c #FBFBFB",
"P c gray100",
/* pixels */
"PPPPPJNitiNJPPPP",
"PPPPFzkxvxkkFPPP",
"PPJxsvNNNvBmgxJP",
"PPxkNNvvvNmmNkkP",
"PFgNvNvNmmmmvNgF",
"JgvvCABCZNCANvvz",
"CxNCi0ytegrwjCNk",
"ixCzo-<-O6&X&dCv",
"tvCh 53;@6=*.uAv",
"ixCs@:3+ 7# $vNv",
"DkF8*9q%,g14>tAk",
"KkvNvZCvCNBCCvvk",
"PGsNNMmNNMNMNNsG",
"PPvsNvmmvMvvNgvP",
"PPLvsvNNNMNcsvLP",
"PPPPHkkxxxkkHPPP"
};
