/* XPM */
static char *_6475_c2a8db7cff22fda7bb0614e8ccf10c6021961c3032a7feb3d3a6eae0429ed44e[] = {
/* columns rows colors chars-per-pixel */
"64 64 128 2 ",
"   c #000000",
".  c #090100",
"X  c #01060D",
"o  c #03080C",
"O  c #130901",
"+  c #110D0B",
"@  c #1C130F",
"#  c #000610",
"$  c #000C15",
"%  c #040E1C",
"&  c #07101B",
"*  c #1B1814",
"=  c #16181B",
"-  c #21140B",
";  c #2B1D11",
":  c #261E1B",
">  c #24211B",
",  c #332516",
"<  c #342619",
"1  c #37291B",
"2  c #0A1323",
"3  c #0E1924",
"4  c #131A24",
"5  c #1B1E26",
"6  c #141C2C",
"7  c #1A1E2B",
"8  c #161F32",
"9  c #1D2224",
"0  c #152232",
"q  c #1A2433",
"w  c #2E2621",
"e  c #2F3131",
"r  c #433526",
"t  c #4C3E2F",
"y  c #473B32",
"u  c #4A3E36",
"i  c #263443",
"p  c #293747",
"a  c #2F3C49",
"s  c #313B46",
"d  c #3C464F",
"f  c #454544",
"g  c #494949",
"h  c #59564F",
"j  c #4E535A",
"k  c #5E5B5A",
"l  c #64584C",
"z  c #6E5C48",
"x  c #73614F",
"c  c #6E665E",
"v  c #72665A",
"b  c #7C6B59",
"n  c #415262",
"m  c #565C66",
"M  c #546474",
"N  c #576878",
"B  c #5A6A79",
"V  c #797268",
"C  c #616C74",
"Z  c #757575",
"A  c #7C7C7C",
"S  c #817261",
"D  c #877768",
"F  c #8D7D6D",
"G  c #8F7F70",
"H  c #938474",
"J  c #98897B",
"K  c #737C83",
"L  c #758593",
"P  c #788997",
"I  c #848484",
"U  c #8A8A8A",
"Y  c #938D87",
"T  c #939393",
"R  c #9D9D9D",
"E  c #A59B91",
"W  c #AC9F93",
"Q  c #A09F9F",
"!  c #AEA094",
"~  c #B1A394",
"^  c #8C9BA7",
"/  c #919FAC",
"(  c #9FA2A3",
")  c #9EABB4",
"_  c #A3A3A3",
"`  c #A6A6A8",
"'  c #A3ACAF",
"]  c #ABABAC",
"[  c #BCB1A4",
"{  c #B6B3AF",
"}  c #ABB5BE",
"|  c #B5B4B4",
" . c #BBB7B5",
".. c #BABBB6",
"X. c #BCBCBD",
"o. c #C0BEBB",
"O. c #C5C0B6",
"+. c #C5C1BB",
"@. c #CAC6BE",
"#. c #B7BDC3",
"$. c #BCBDC1",
"%. c #B3BFC9",
"&. c #B7C0C7",
"*. c #BDC3C7",
"=. c #B7C3CD",
"-. c #BEC4CA",
";. c #BCC9D2",
":. c #C3C3C3",
">. c #C9C6C3",
",. c #CBC8C5",
"<. c #C3C6C9",
"1. c #C6C9CC",
"2. c #CACACA",
"3. c #D0CCC7",
"4. c #D1CFCC",
"5. c #D1D0CE",
"6. c #C7CCD0",
"7. c #C9CDD2",
"8. c #CFD1D2",
"9. c #CAD3D8",
"0. c #D1D2D2",
"q. c #D6DADC",
"w. c #DBDBDC",
"e. c #D6E1EA",
"r. c #E4E4E4",
"t. c #ECECEC",
"y. c #F4F4F4",
"u. c #FFFFFF",
/* pixels */
"u.u.u.u.u.u.u.u.u.u.u.u.u.u.u.u.u.u.u.u.u.u.u.u.u.u.u.u.t.r.$.|  .| o.t.t.u.u.u.u.u.u.u.u.u.u.u.u.u.u.u.u.u.u.u.u.u.u.u.u.u.u.u.",
"u.u.u.u.u.u.u.u.u.u.u.u.u.u.u.u.u.u.u.u.u.u.u.t.0.] T U I A I U I I I L G U T ] 0.t.u.u.u.u.u.u.u.u.u.u.u.u.u.u.u.u.u.u.u.u.u.u.",
"u.u.u.u.u.u.u.u.u.u.u.u.u.u.u.u.u.u.u.u.y.2.T A A U R ] | X.o.:.:.:.:...| ` R I A A T 2.y.u.u.u.u.u.u.u.u.u.u.u.u.u.u.u.u.u.u.u.",
"u.u.u.u.u.u.u.u.u.u.u.u.u.u.u.u.u.u.t.| A A T | X.<.2.>.<.:.>.:.>.:.:.2.<.2.2.<.$.{ R A A | t.u.u.u.u.u.u.u.u.u.u.u.u.u.u.u.u.u.",
"u.u.u.u.u.u.u.u.u.u.u.u.u.u.u.u.t.` A I ` :.<.>.>.:.:.:.:.:.:.:.:.:.:.:.:.:.:.:.:.>.<.:.' I Z _ t.u.u.u.u.u.u.u.u.u.u.u.u.u.u.u.",
"u.u.u.u.u.u.u.u.u.u.u.u.u.u.u.X.A I ] :.2.:.:.:.:.:.:.:.:.:.:.:.:.:.:.:.:.:.:.:.:.:.:.:.2.>.] I A X.u.u.u.u.u.u.u.u.u.u.u.u.u.u.",
"u.u.u.u.u.u.u.u.u.u.u.u.u.t.T Z _ >.<.:.:.:.:.:.:.:.:.:.:.:.:.:.:.:.:.:.:.:.:.:.:.:.:.:.:.:.>.<.` Z T t.u.u.u.u.u.u.u.u.u.u.u.u.",
"u.u.u.u.u.u.u.u.u.u.u.u.2.A U X.2.:.:.:.:.:.:.:.:.:.:.:.:.*.:.:.:.:.:.:.:.:.:.:.:.:.:.:.:.:.:.:.2.:.U A 2.u.u.u.u.u.u.u.u.u.u.u.",
"u.u.u.u.u.u.u.u.u.u.u.:.Z R >.>.:.:.:.:.:.:.:.:.:.:.:.:.:.:.:.:.:.:.:.:.:.:.:.:.:.:.:.+.:.:.:.:.:.:.<.R Z :.u.u.u.u.u.u.u.u.u.u.",
"u.u.u.u.u.u.u.u.u.u.] Z ` 2.:.:.:.:.:.:.*.:.:.:.:.:.:.:.:.:.:.:.:.:.:.:.:.:.:.:.:.:.:.:.:.:.:.:.:.:.>.2.] Z ] u.u.u.u.u.u.u.u.u.",
"u.u.u.u.u.u.u.u.u.] Z | 1.:.:.:.:.:.:.:.+.:.:.:.:.:.:.:.:.:.:.:.:.:.:.:.:.:.:.:.:.:.:.:.:.:.:.:.:.:.:.:.2.| Z ] u.u.u.u.u.u.u.u.",
"u.u.u.u.u.u.u.u.X.Z | 2.:.:.:.:.:.:.:.:.:.:.:.:.:.:.:.:.:.:.:.:.:.:.:.:.:.:.$.:.:.:.:.:.:.:.:.:.:.:.:.:.:.>.| Z X.u.u.u.u.u.u.u.",
"u.u.u.u.u.u.u.5.Z ` 2.:.:.:.:.:.:.:.:.:.:.:.:.:.:.:.:.:.$.:.:.:.:.:.:.:.:.:.:.:.:.:.*.:.:.:.:.:.:.:.:.:.:.:.2.] Z 2.u.u.u.u.u.u.",
"u.u.u.u.u.u.t.A R 2.:.:.:.:.:.:.:.:.:.:.:.:.:.:.:.:.:.:.:.:.:.:.*.:.:.:.:.:.:.:.:.:.:.:.:.:.:.:.:.:.:.:.:.:.:.2.` Z r.u.u.u.u.u.",
"u.u.u.u.u.u.T U >.:.:.:.:.:.:.:.:.:.:.:.:.:.:.:.:.:.$.:.:.:.:.:.+.:.:.:.:.:.:.:.:.:.:.:.:.:.:.:.:.:.:.:.:.:.:.:.2.U U u.u.u.u.u.",
"u.u.u.u.u.:.Z $.<.:.:.:.:.:.:.:.:.:.:.+.:.:.:.:.:.:.:.:.:.:.:.:.:.:.:.:.:.:.:.:.:.:.:.:.+.:.:.:.:.:.:.:.:.:.:.:.>.:.Z X.u.u.u.u.",
"u.u.u.u.y.A ` ,.:.:.:.:.:.:.:.:.:.:.$.:.:.:.:.:.:.:.:.:.:.:.:.:.:.:.:.:.:.:.:.:.:.:.:.:.:.:.:.:.:.:.:.:.:.:.:.:.:.,.' Z t.u.u.u.",
"u.u.u.u._ I >.:.:.:.:.:.:.:.:.:.:.:.:.:.:.:.:.:.:.:.:.:.:.:.:.:.:.:.:.:.:.:.:.:.:.:.:.:.:.:.:.:.:.:.:.:.:.:.:.$.:.>.>.U _ u.u.u.",
"u.u.u.r.Z | <.:.:.:.:.:.+.:.:.:.:.:.:.:.:.:.:.:.:.:.:.:.:.:.:.:.:.:.:.:.:.:.:.:.:.:.:.:.:.:.:.:.:.:.:.:.:.:.:.:.:.:.>.| Z r.u.u.",
"u.u.u.` U 2.:.:.:.:.:.:.:.:.:.:.:.:.:.:.:.:.:.:.:.:.:.:.+.:.:.:.:.:.:.$.:.:.:.:.:.:.:.$.:.:.:.:.:.:.*.:.:.:.:.:.:.:.:.<.U _ u.u.",
"u.u.y.K ] 2.*.:.:.:.:.:.:.:.:.:.:.:.:.:.:.:.:.:.:.:.:.:.:.:.:.:.:.:.:.:.:.:.:.:.:.:.:.:.:.:.:.:.:.:.:.:.:.:.:.:.:.:.:.2.{ G y.u.",
"u.u.2.G :.>.:.:.:.:.:.:.:.:.:.:.:.:.:.:.:.:.:.:.:.:.:.:.:.:.:.:.:.:.:.:.:.:.:.:.:.:.:.:.:.:.:.:.:.:.:.:.+.:.*.:.:.:.:.:.:.K #.u.",
"u.u.T T >.:.:.:.:.:.:.:.:.:.:.:.$.:.:.:.:.:.:.:.:.:.:.:.:.:.:.:.:.:.:.:.+.:.:.:.:.:.:.:.:.:.:.:.:.:.:.:.:.:.:.:.:.:.:.:.3.T T u.",
"u.t.L | >.:.:.:.:.:.:.:.:.$.:.:.:.:.:.:.:.:.:.:.:.:.:.:.:.:.:.:.:.:.:.:.:.:.:.:.:.:.:.:.:.:.:.:.:.:.:.:.:.:.:.:.:.:.:.:.>.{ L t.",
"u.0.I :.:.:.:.:.:.:.:.:.:.:.:.:.:.5.0.0.0.0.:.>.2.4.3.2.3.:.>.2.2.2.3.,.:.:.<.2.3.4.2.2.2.4.2.>.:.:.:.:.:.:.:.:.:.:.:.:.:.:.A 2.",
"u.] U >.:.:.:.:.:.:.:.:.:.:.:.2.,.Y h f g K <.o./ Q Q Q / :.{ Q R Q / ] >.>.o./ Q / Q Q Q _ ' :.7.>.:.:.:.:.:.:.:.:.:.:.:.>.U ] ",
"u.T ( >.:.:.:.:.:.:.:.:.:.:.2.O.u         % ;.~ .       $ %.b         a 6.0.G .             o 9 C <.,.:.:.:.:.:.:.:.:.:.:.<._ T ",
"y.I ` 2.:.:.:.:.:.:.:.:.:.<.,.r           4 ;.~ .       $ %.b         a 7.0.H                     s -.:.:.:.:.:.:.:.:.:.:.>.] T ",
"t.L | >.:.:.:.:.:.:.:.:.:.0.D             4 ;.~ .       $ %.b         a 7.8.H                       M 0.:.:.:.:.:.:.:.:.:.<.| U ",
"r.H X.:.:.:.:.:.:.:.:.:.:.3.r             2 -.~ .       $ %.b         a 7.0.H                       3 &.>.:.:.:.:.:.:.:.:.>.X.U ",
"*.U :.:.:.:.:.:.$.:.:.:.>.O.;         o K / 2.! .       $ %.b         a 7.0.H         4 ' v         # ) 2.:.:.:.:.:.:.:.:.:.>.U ",
"| I :.:.:.:.:.:.:.:.:.:.<.+.;         0 9.2.4.W .       $ &.b         a 7.0.H         8 e.~ .       # ) 2.:.:.:.:.:.:.:.:.:.:.U ",
"X.I :.<.:.:.:.:.:.:.:.:.:.5.t         X / 4.2.W .       $ &.b         a 7.8.H         7 k *         3 &.:.:.:.:.:.:.:.:.$.:.:.U ",
"| I :.:.:.:.:.:.:.:.:.:.:.8.F           p 6.7.W .       $ &.b         a 7.0.H         5 @           B 0.:.:.:.:.:.:.:.:.:.:.:.U ",
"2.I X.>.:.:.:.:.:.:.:.:.:.<.+.;           ^ q.W .       $ =.b         a 7.8.H         5 :         d 1.>.:.:.:.:.:.:.:.:.:.:.:.U ",
"t.A | :.:.:.:.:.:.:.:.:.:.>.0.G           B q.W .       $ =.b         a 7.0.H         5 :         P 0.*.:.:.:.:.:.:.:.:.:.:.X.U ",
"t.I | >.:.:.:.:.:.:.:.:.:...8.J           n q.W .       X } z         a 7.0.H         7 w         i 1.:.*.:.:.:.:.:.:.:.:.>.| U ",
"u.U _ <.:.:.:.:.:.:.:.:.@.r e +           m q.[ O         9 +         n 8.8.H         i V           ) 2.:.:.:.:.:.:.:.:.:.,.` T ",
"u.R T 2.:.:.:.:.:.:.:.:.@.,               ^ 5.>.<                     L 5.8.H         q ..-         n 8.:.:.:.:.:.:.:.:.:.2.T R ",
"u.:.I <.:.:.:.:.:.:.:.<.,.1             i 1.>.0.S                   q -.>.8.H         6 9.x         & #.>.:.:.:.:.:.:.:.:.<.I | ",
"u.w.A X.>.:.:.:.:.:.:.>.@.;           q } 2.:.>.>.y               3 ) ,.:.7.H         2 ;.o..         N 5.:.:.:.:.:.:.:.:.X.A w.",
"u.u.I ] 2.:.:.:.:.:.:.:.,.l +     4 m #.4.:.:.:.2.:.c > .   o = j } 4.:.:.2.E g g g g m -.2.b g g g g C 2.:.$.:.:.:.:.:.>.] I u.",
"u.u.] U >.*.:.:.:.$.:.:.:.2.| _ ` $.0.<.:.:.:.:.:.>.0.o.] _ ` X.0.,.:.:.:.:.2.2.0.0.0.2.:.:.2.4.0.0.0.2.:.:.:.*.:.:.:.:.>.U ] u.",
"u.u.w.A X.>.:.:.:.:.:.:.:.:.2.2.2.,.>.:.:.:.:.:.:.:.:.:.2.2.2.2.:.:.:.:.:.:.:.:.:.:.:.>.:.:.>.:.:.:.:.:.:.:.:.:.:.:.:.:.X.Z q.u.",
"u.u.u.U R 2.:.:.:.:.:.:.:.:.:.:.:.:.:.:.:.:.:.:.:.:.:.:.:.:.:.:.:.:.:.:.:.:.:.:.:.:.:.:.:.:.*.:.:.:.:.:.:.:.:.:.:.:.:.,._ U u.u.",
"u.u.u.:.A :.:.:.:.:.:.:.:.:.:.:.:.:.:.:.:.:.:.$.:.:.:.:.:.:.:.:.:.:.:.:.:.:.:.:.:.:.:.:.:.:.:.:.:.:.:.:.:.:.:.:.:.:.>.:.A :.u.u.",
"u.u.u.u.I ( 2.:.:.*.:.:.:.:.:.:.:.:.:.:.:.:.:.:.:.:.:.:.:.:.:.:.:.:.:.:.:.:.:.:.:.:.:.:.:.:.:.:.:.:.:.:.:.:.:.:.*.:.2._ I y.u.u.",
"u.u.u.u.<.Z X.>.:.:.:.:.:.+.:.:.:.:.:.:.:.:.:.:.:.:.:.:.:.:.:.:.:.:.:.:.:.:.:.:.:.:.:.:.:.:.:.:.:.:.:.:.:.:.:.:.:.>.$.Z 2.u.u.u.",
"u.u.u.u.u.T U 2.:.:.:.:.:.:.:.:.:.:.:.:.:.:.:.:.:.:.:.:.+.:.:.:.:.:.:.:.:.:.:.:.:.:.:.:.:.:.:.:.:.:.:.:.:.:.:.:.:.2.U T u.u.u.u.",
"u.u.u.u.u.r.Z ] 2.:.:.:.:.:.:.:.:.:.:.:.:.:.:.:.:.:.:.:.:.:.:.:.:.:.:.:.:.:.:.:.:.:.:.:.:.:.:.:.:.:.:.:.:.:.:.:.2.] Z r.u.u.u.u.",
"u.u.u.u.u.u.X.Z X.>.:.:.:.:.:.:.:.:.:.:.:.:.:.:.:.:.:.:.:.:.:.:.:.:.:.:.:.:.:.*.:.:.$.:.:.:.:.:.:.+.:.:.:.:.:.<.X.Z X.u.u.u.u.u.",
"u.u.u.u.u.u.u._ A :.>.*.:.:.:.:.:.:.:.:.:.$.:.:.:.:.:.:.:.:.:.:.:.:.:.:.:.+.:.:.:.:.:.:.:.:.:.:.:.:.:.:.:.:.>.:.I T u.u.u.u.u.u.",
"u.u.u.u.u.u.u.y.U U <.>.:.:.:.:.:.:.*.+.:.:.:.:.:.:.:.:.:.:.:.:.:.:.*.:.:.:.:.:.:.:.:.:.:.:.:.:.:.:.:.:.:.>.>.T I y.u.u.u.u.u.u.",
"u.u.u.u.u.u.u.u.t.A T <.:.:.:.:.:.:.:.:.:.:.:.:.:.:.:.:.$.:.:.:.:.:.:.:.:.:.:.:.:.:.:.:.:.:.:.:.:.:.:.:.<.<.T A r.u.u.u.u.u.u.u.",
"u.u.u.u.u.u.u.u.u.r.A T >.<.:.:.:.:.:.:.:.:.:.:.:.:.:.:.:.:.:.:.:.:.$.:.:.:.:.:.:.:.:.:.:.:.:.:.:.:.:.>.<.T A r.u.u.u.u.u.u.u.u.",
"u.u.u.u.u.u.u.u.u.u.r.I I +.<.:.:.:.:.:.:.:.:.:.:.:.:.:.:.:.:.:.:.:.:.:.:.:.:.:.+.:.:.:.:.:.:.:.:.:.<.X.U A r.u.u.u.u.u.u.u.u.u.",
"u.u.u.u.u.u.u.u.u.u.u.y.T A | <.>.:.:.:.:.:.:.:.:.:.:.:.:.:.:.:.:.:.:.:.:.:.:.:.:.:.:.:.:.:.:.:.:.>.| A T y.u.u.u.u.u.u.u.u.u.u.",
"u.u.u.u.u.u.u.u.u.u.u.u.u.] Z R :.>.:.:.:.:.:.:.:.:.:.:.:.:.:.:.:.:.+.:.:.:.:.:.:.:.:.:.:.:.*.2.:.R Z ] u.u.u.u.u.u.u.u.u.u.u.u.",
"u.u.u.u.u.u.u.u.u.u.u.u.u.u.2.I K { >.2.:.:.:.:.:.:.:.:.:.:.:.:.:.:.:.:.:.:.:.:.:.:.:.:.:.2.2.] K I 2.u.u.u.u.u.u.u.u.u.u.u.u.u.",
"u.u.u.u.u.u.u.u.u.u.u.u.u.u.u.y.| Z I ] <.2.:.:.:.:.:.:.:.:.:.:.:.:.:.:.:.:.:.:.:.:.:.2.>.] I A { y.u.u.u.u.u.u.u.u.u.u.u.u.u.u.",
"u.u.u.u.u.u.u.u.u.u.u.u.u.u.u.u.u.r.R A I R X.>.<.>.:.:.:.:.:.:.:.:.:.:.:.:.>.<.2.,.X._ I Z R r.u.u.u.u.u.u.u.u.u.u.u.u.u.u.u.u.",
"u.u.u.u.u.u.u.u.u.u.u.u.u.u.u.u.u.u.u.t.| U A U R | :.:.2.<.>.<.>.2.2.2.>.:.:.| R U A I | t.u.u.u.u.u.u.u.u.u.u.u.u.u.u.u.u.u.u.",
"u.u.u.u.u.u.u.u.u.u.u.u.u.u.u.u.u.u.u.u.u.u.q.] U I A I T T _ _ _ _ _ T U I K I U ] 0.u.u.u.u.u.u.u.u.u.u.u.u.u.u.u.u.u.u.u.u.u.",
"u.u.u.u.u.u.u.u.u.u.u.u.u.u.u.u.u.u.u.u.u.u.u.u.u.t.7.>.] ` T T T T T ] ] >.4.t.u.u.u.u.u.u.u.u.u.u.u.u.u.u.u.u.u.u.u.u.u.u.u.u."
};
