/* XPM */
static char *_0541_64c1678e8eb677facdbf7bb994f8da4b9ec132d16cc5ba78fe60b09eefdb7824[] = {
/* columns rows colors chars-per-pixel */
"128 128 39 1 ",
"  c black",
". c #2C0000",
"X c #2C2C00",
"o c #00002C",
"O c #2C2C2C",
"+ c #4E0000",
"@ c #6E2C00",
"# c #6E4E2C",
"$ c #00004E",
"% c #2C2C4E",
"& c #002C6E",
"* c #2C4E4E",
"= c #2C4E6E",
"- c #4E4E4E",
"; c #6E4E4E",
": c #4E6E6E",
"> c gray50",
", c #8B4E00",
"< c #A86E2C",
"1 c #8B6E4E",
"2 c #A88B4E",
"3 c #A88B6E",
"4 c #C38B4E",
"5 c #C3A86E",
"6 c #004E8B",
"7 c #2C6EA8",
"8 c #4E8BA8",
"9 c #4E8BC3",
"0 c #6EA8C3",
"q c #8BA8A8",
"w c #8BC38B",
"e c #C3C38B",
"r c #C3C3A8",
"t c #8BA8C3",
"y c #A8A8C3",
"u c #8BC3C3",
"i c #A8C3C3",
"p c #C3C3C3",
"a c white",
/* pixels */
"aaaaaaaaaaaaaaaaaaaaaaaaaaaaaaaaaaaaaaaaaaaaaaaaaaaaaaaaaaaaaaaaaaaaaaaaaaaaaaaaaaaaaaaaaaaaaaaaaaaaaaaaaaaaaaaaaaaaaaaaaaaaaaaa",
"aaaaaaaaaaaaaaaaaaaaaaaaaaaaaaaaaaaaaaaaaaaaaaaaaaaaaaa>>>>>>>>>>>>>>>>>>>aaaaaaaaaaaaaaaaaaaaaaaaaaaaaaaaaaaaaaaaaaaaaaaaaaaaaa",
"aaaaaaaaaaaaaaaaaaaaaaaaaaaaaaaaaaaaaaaaaaaaaaaaaa>>>>>>>>>>>>>>>>>>>>>>>>>>>>>aaaaaaaaaaaaaaaaaaaaaaaaaaaaaaaaaaaaaaaaaaaaaaaaa",
"aaaaaaaaaaaaaaaaaaaaaaaaaaaaaaaaaaaaaaaaaaaaaa>>>>>>>>>>>>>>pppppppppp>>>>>>>>>>>>>aaaaaaaaaaaaaaaaaaaaaaaaaaaaaaaaaaaaaaaaaaaaa",
"aaaaaaaaaaaaaaaaaaaaaaaaaaaaaaaaaaaaaaaaaaa>>>>>>>>>ppppppppppppppppppppppppp>>>>>>>>>aaaaaaaaaaaaaaaaaaaaaaaaaaaaaaaaaaaaaaaaaa",
"aaaaaaaaaaaaaaaaaaaaaaaaaaaaaaaaaaaaaaaa>>>>>>>>ppppppppppppppppppppppppppppppppp>>>>>>>>aaaaaaaaaaaaaaaaaaaaaaaaaaaaaaaaaaaaaaa",
"aaaaaaaaaaaaaaaaaaaaaaaaaaaaaaaaaaaaaa>>>>>>>ppppppppppppppppppppppppppppppppppppppp>>>>>>>aaaaaaaaaaaaaaaaaaaaaaaaaaaaaaaaaaaaa",
"aaaaaaaaaaaaaaaaaaaaaaaaaaaaaaaaaaaa>>>>>>ppppppppppppppppppppppppppppppppppppppppppppp>>>>>>aaaaaaaaaaaaaaaaaaaaaaaaaaaaaaaaaaa",
"aaaaaaaaaaaaaaaaaaaaaaaaaaaaaaaaaa>>>>>>ppppppppppppppppppppppppppppppppppppppppppppppppp>>>>>>aaaaaaaaaaaaaaaaaaaaaaaaaaaaaaaaa",
"aaaaaaaaaaaaaaaaaaaaaaaaaaaaaaaa>>>>>>ppppppppppppppppppppppppppppppppppppppppppppppppppppp>>>>>>aaaaaaaaaaaaaaaaaaaaaaaaaaaaaaa",
"aaaaaaaaaaaaaaaaaaaaaaaaaaaaaaa>>>>>ppppppppppppppppppppppppppppppppppppppppppppppppppppppppp>>>>>aaaaaaaaaaaaaaaaaaaaaaaaaaaaaa",
"aaaaaaaaaaaaaaaaaaaaaaaaaaaaa>>>>>ppppppppppppppppppppppppppppppppppppppppppppppppppppppppppppp>>>>>aaaaaaaaaaaaaaaaaaaaaaaaaaaa",
"aaaaaaaaaaaaaaaaaaaaaaaaaaaa>>>>ppppppppppppppppppppppppppppppppppppppppppppppppppppppppppppppppp>>>>aaaaaaaaaaaaaaaaaaaaaaaaaaa",
"aaaaaaaaaaaaaaaaaaaaaaaaaa>>>>>pppppppppppppppppppppppppppppppppppppppppppppppppppppppppppppppppppp>>>>aaaaaaaaaaaaaaaaaaaaaaaaa",
"aaaaaaaaaaaaaaaaaaaaaaaaa>>>>ppppppppppppppppppppppppppppppppppppppppppppppppppppppppppppppppppppppp>>>>aaaaaaaaaaaaaaaaaaaaaaaa",
"aaaaaaaaaaaaaaaaaaaaaaaa>>>>ppppppppppppppppppppppppppppppppppppppppppppppppppppppppppppppppppppppppp>>>>aaaaaaaaaaaaaaaaaaaaaaa",
"aaaaaaaaaaaaaaaaaaaaaaa>>>ppppppppppppppppppppppppppppppppppppppppppppppppppppppppppppppppppppppppppppp>>>aaaaaaaaaaaaaaaaaaaaaa",
"aaaaaaaaaaaaaaaaaaaaa>>>>ppppppppppppppppppppppppppppppppppppppppppppppppppppppppppppppppppppppppppppppp>>>>aaaaaaaaaaaaaaaaaaaa",
"aaaaaaaaaaaaaaaaaaaa>>>>ppppppppppppppppppppppppppppppppppppppppppppppppppppppppppppppppppppppppppppppppp>>>>aaaaaaaaaaaaaaaaaaa",
"aaaaaaaaaaaaaaaaaaa>>>>ppppppppppppppppppppppppppppppppppppppppppppppppppppppppppppppppppppppppppppppppppp>>>>aaaaaaaaaaaaaaaaaa",
"aaaaaaaaaaaaaaaaaa>>>>ppppppppppppppppppppppppppppppppppppppppppppppppppppppppppppppppppppppppppppppppppppp>>>>aaaaaaaaaaaaaaaaa",
"aaaaaaaaaaaaaaaaa>>>>ppppppppppppppppppppppppppppppppppppppppppppppppppppppppppppppppppppppppppppppppppppppp>>>>aaaaaaaaaaaaaaaa",
"aaaaaaaaaaaaaaaa>>>>ppppppppppppppppppppppppppppppppppppppppppppppppppppppppppppppppppppppppppppppppppppppppp>>>>aaaaaaaaaaaaaaa",
"aaaaaaaaaaaaaaaa>>>ppppppppppppppppppppppppppppppppppppppppppppppppppppppppppppppppppppppppppppppppppppppppppp>>>aaaaaaaaaaaaaaa",
"aaaaaaaaaaaaaaa>>>ppppppppppppppppppppppppppppppppppppppppppppppppppppppppppppppppppppppppppppppppppppppppppppp>>>aaaaaaaaaaaaaa",
"aaaaaaaaaaaaaa>>>ppppppppppppppppppppppppppppppppppppppppppppppppppppppppppppppppppppppppppppppppppppppppppppppp>>>aaaaaaaaaaaaa",
"aaaaaaaaaaaaa>>>ppppppppppppppppppppppppppppppppppppppppppppppppppppppppppppppppppppppppppppppppppppppppppppppppp>>>aaaaaaaaaaaa",
"aaaaaaaaaaaaa>>>ppppppppppppppppppppppppppppppppppppppppppppppppppppppppppppppppppppppppppppppppppppppppppppppppp>>>>aaaaaaaaaaa",
"aaaaaaaaaaaa>>>ppppppppppppppppppppppppppppppppppppppppppppppppppppppppppppppppppppppppppppppppppppppppppppppppppp>>>aaaaaaaaaaa",
"aaaaaaaaaaa>>>ppppppppppppppppppppppppppppppppppppppppppppppppppppppppppppppppppppppppppppppppppppppppppppppppppppp>>>aaaaaaaaaa",
"aaaaaaaaaaa>>ppppppppppppppppppppppppppppppppppppppppppppppppppppppppppppppppppppppppppppppppppppppppppppppppppppppp>>>aaaaaaaaa",
"aaaaaaaaaa>>>ppppppppppppppppppppppppppppppppppppppppppppppppppppppppppppppppppppppppppppppppppppppppppppppppppppppp>>>aaaaaaaaa",
"aaaaaaaaa>>>ppppppppppppppppppppppppppppppppppppppppppppppppppppppppppppppppppppppppppppppppppppppppppppppppppppppppp>>>aaaaaaaa",
"aaaaaaaaa>>>ppppppppppppppppppppppppppppppppppppppppppppppppppppppppppppppppppppppppppppppppppppppppppppppppppppppppp>>>aaaaaaaa",
"aaaaaaaa>>>ppppppppppppppppppppppppppppppppppppppppppppppppppppppppppppppppppppppppppppppppppppppppppppppppppppppppppp>>>aaaaaaa",
"aaaaaaaa>>ppppppppppppppppppppppppppppppppppppppppppppppppppppppppppppppppppppppppppppppppppppppppppppppppppppppppppppp>>aaaaaaa",
"aaaaaaa>>>ppppppppppppppppppppppppppppppppppppppppppppppppppppppppppppppppppppppppppppppppppppppppppppppppppppppppppppp>>>aaaaaa",
"aaaaaaa>>ppppppppppppppppppppppppppppppppppppppppppppppppppppppppppppppppppppppppppppppppppppppppppppppppppppppppppppppp>>aaaaaa",
"aaaaaa>>>ppppppppppppppppppppppppppppppppppppppppppppppppppppppppppppppppppppppppppppppppppppppppppppppppppppppppppppppp>>>aaaaa",
"aaaaaa>>ppppppppppppppppppppppppppppppppppppppppppppppppppppppppppppppppppppppppppppppppppppppppppppppppppppppppppppppppp>>aaaaa",
"aaaaa>>>ppppppppppppppppppppppppppppppppppppppppppppppppppppppppppppppppppppppppppppppppppppppppppppppppppppppppppppppppp>>>aaaa",
"aaaaa>>>ppppppppppppppppppppppppppppppppppppppppppppppppppppppppppppppppppppppppppppppppppppppppppppppppppppppppppppppppp>>>aaaa",
"aaaaa>>ppppppppppppppppppppppppppppppppppppppppppppppppppppppppppppppppppppppppppppppppppppppppppppppppppppppppppppppppppp>>aaaa",
"aaaa>>>ppppppppppppppppppppppppppppppppppppppppppppppppppppppppppppppppppppppppppppppppppppppppppppppppppppppppppppppppppp>>>aaa",
"aaaa>>>ppppppppppppppppppppppppppppppppppppppppppppppppppppppppppppppppppppppppppppppppppppppppppppppppppppppppppppppppppp>>>aaa",
"aaaa>>ppppppppppppppppppppppppppppppppppppppppppppppppppppppppppppppppppppppppppppppppppppppppppppppppppppppppppppppppppppp>>aaa",
"aaa>>>ppppppppppppppppppppppppppppppppppppppppppppppppppppppppppppppppppppppppppppppppppppppppppppppppppppppppppppppppppppp>>>aa",
"aaa>>>ppppppppppppppppppppppppppppppppppppppppppppppppppppppppppppppppppppppppppppppppppppppppppppppppppppppppppppppppppppp>>>aa",
"aaa>>ppppppppppppppppppppppppppppppppppppppppppppppppppppppppppppppppppppppppppppppppppppppppppppppppppppppppppppppppppppppp>>aa",
"aaa>>ppppppppppppppppppppppppppppppppppppppppppppppppppppppppppppppppppppppppppppppppppppppppppppppppppppppppppppppppppppppp>>>a",
"aa>>>pppppppppppppppppppppppppppppp3X    %ippppppppppppppppppppppppppppppppppppppppppppppppppppppppppppppppppppppppppppppppp>>>a",
"aa>>>pppppppppppppppppppppppppppp#         0ppp.         6pp<          pppppr               o:pppppppppppppppppppppppppppppp>>>a",
"aa>>pppppppppppppppppppppppppppr           0ppp.         6pp<          pppppr                   8pppppppppppppppppppppppppppp>>a",
"aa>>ppppppppppppppppppppppppppe            0ppp.         6pp<          pppppr                     ppppppppppppppppppppppppppp>>a",
"aa>>pppppppppppppppppppppppppp             0ppp.         6pp<          pppppr                      pppppppppppppppppppppppppp>>a",
"a>>>ppppppppppppppppppppppppp+             0ppp.         6pp<          pppppr                       ppppppppppppppppppppppppp>>>",
"a>>>pppppppppppppppppppppppp5              0ppp.         6pp<          pppppr                       7pppppppppppppppppppppppp>>>",
"a>>>pppppppppppppppppppppppp+              0ppp.         6pp<          pppppr                        pppppppppppppppppppppppp>>>",
"a>>>pppppppppppppppppppppppp               0ppp.         6pp<          pppppr                        0pppppppppppppppppppppppp>>",
"a>>ppppppppppppppppppppppppr               0ppp.         6pp<          pppppr                        7pppppppppppppppppppppppp>>",
"a>>pppppppppppppppppppppppp5            ppppppp.         6pp<          pppppr          upp5          &pppppppppppppppppppppppp>>",
"a>>pppppppppppppppppppppppp5           0ppppppp.         6pp<          pppppr          uppp.         &pppppppppppppppppppppppp>>",
"a>>ppppppppppppppppppppppppe           ippppppp.         6pp<          pppppr          uppp.         &pppppppppppppppppppppppp>>",
"a>>ppppppppppppppppppppppppp           9ppppppp.         6pp<          pppppr          upp2          6pppppppppppppppppppppppp>>",
"a>>ppppppppppppppppppppppppp           oppppppp.         6pp<          pppppr          w             0pppppppppppppppppppppppp>>",
"a>>ppppppppppppppppppppppppp@           9pppppp.         6pp<          pppppr          w             ppppppppppppppppppppppppp>>",
"a>>pppppppppppppppppppppppppe            pppppp.         6pp<          pppppr          w            9ppppppppppppppppppppppppp>>",
"a>>pppppppppppppppppppppppppp.           7ppppp.         6pp<          pppppr          w           $pppppppppppppppppppppppppp>>",
"a>>pppppppppppppppppppppppppp5            ppppp.         6pp<          pppppr          w           ppppppppppppppppppppppppppp>>",
"a>>>pppppppppppppppppppppppppp+           ipppp.         6pp<          pppppr          w          pppppppppppppppppppppppppppp>>",
"a>>>ppppppppppppppppppppppppppe           9pppp.         6pp<          pppppr          w          ipppppppppppppppppppppppppp>>>",
"a>>>ppppppppppppppppppppppppppp           6pppp.         6pp<          pppppr          w          6pppppppppppppppppppppppppp>>>",
"a>>>ppppppppppppppppppppppppppp           &pppp.         &pp@          pppppr          w           pppppppppppppppppppppppppp>>>",
"aa>>pppppppppppppppppppppr-tpp+           &pppp+          ip          opppppr          u+          9ppppppppppppppppppppppppp>>a",
"aa>>pppppppppppppppppppppr                7pppp,                      &pppppr          u5          oppppppppppppppppppppppppp>>a",
"aa>>pppppppppppppppppppppr                0pppp4                      9pppppr          up           upppppppppppppppppppppppp>>a",
"aa>>>ppppppppppppppppppppr                pppppr                      ipppppr          up4          &ppppppppppppppppppppppp>>>a",
"aa>>>ppppppppppppppppppppr               6pppppp.                    $ppppppr          upp           ppppppppppppppppppppppp>>>a",
"aaa>>ppppppppppppppppppppr               ppppppp4                    ippppppr          upp,          7pppppppppppppppppppppp>>>a",
"aaa>>ppppppppppppppppppppr              0pppppppp.                  7pppppppr          uppp           pppppppppppppppppppppp>>aa",
"aaa>>>pppppppppppppppppppr             9pppppppppp                 &ppppppppr          uppp@          0pppppppppppppppppppp>>>aa",
"aaa>>>pppppppppppppppppppr            tpppppppppppp               7pppppppppr          upppe          $pppppppppppppppppppp>>>aa",
"aaaa>>pppppppppppppppppppr          =ppppppppppppppp1           opppppppppppr          upppp+          ippppppppppppppppppp>>aaa",
"aaaa>>>ppppppppppppppppppppp;   o*ypppppppppppppppppppr;O   o*qppppppppppppppppppppppppppppppppppppppppppppppppppppppppppp>>>aaa",
"aaaa>>>ppppppppppppppppppppppppppppppppppppppppppppppppppppppppppppppppppppppppppppppppppppppppppppppppppppppppppppppppppp>>>aaa",
"aaaaa>>ppppppppppppppppppppppppppppppppppppppppppppppppppppppppppppppppppppppppppppppppppppppppppppppppppppppppppppppppppp>>aaaa",
"aaaaa>>>ppppppppppppppppppppppppppppppppppppppppppppppppppppppppppppppppppppppppppppppppppppppppppppppppppppppppppppppppp>>>aaaa",
"aaaaa>>>ppppppppppppppppppppppppppppppppppppppppppppppppppppppppppppppppppppppppppppppppppppppppppppppppppppppppppppppppp>>>aaaa",
"aaaaaa>>ppppppppppppppppppppppppppppppppppppppppppppppppppppppppppppppppppppppppppppppppppppppppppppppppppppppppppppppppp>>aaaaa",
"aaaaaa>>>ppppppppppppppppppppppppppppppppppppppppppppppppppppppppppppppppppppppppppppppppppppppppppppppppppppppppppppppp>>>aaaaa",
"aaaaaaa>>ppppppppppppppppppppppppppppppppppppppppppppppppppppppppppppppppppppppppppppppppppppppppppppppppppppppppppppppp>>aaaaaa",
"aaaaaaa>>>ppppppppppppppppppppppppppppppppppppppppppppppppppppppppppppppppppppppppppppppppppppppppppppppppppppppppppppp>>>aaaaaa",
"aaaaaaaa>>ppppppppppppppppppppppppppppppppppppppppppppppppppppppppppppppppppppppppppppppppppppppppppppppppppppppppppppp>>aaaaaaa",
"aaaaaaaa>>>ppppppppppppppppppppppppppppppppppppppppppppppppppppppppppppppppppppppppppppppppppppppppppppppppppppppppppp>>>aaaaaaa",
"aaaaaaaaa>>>ppppppppppppppppppppppppppppppppppppppppppppppppppppppppppppppppppppppppppppppppppppppppppppppppppppppppp>>>aaaaaaaa",
"aaaaaaaaa>>>ppppppppppppppppppppppppppppppppppppppppppppppppppppppppppppppppppppppppppppppppppppppppppppppppppppppppp>>>aaaaaaaa",
"aaaaaaaaaa>>>ppppppppppppppppppppppppppppppppppppppppppppppppppppppppppppppppppppppppppppppppppppppppppppppppppppppp>>>aaaaaaaaa",
"aaaaaaaaaaa>>ppppppppppppppppppppppppppppppppppppppppppppppppppppppppppppppppppppppppppppppppppppppppppppppppppppppp>>>aaaaaaaaa",
"aaaaaaaaaaa>>>ppppppppppppppppppppppppppppppppppppppppppppppppppppppppppppppppppppppppppppppppppppppppppppppppppppp>>>aaaaaaaaaa",
"aaaaaaaaaaaa>>>ppppppppppppppppppppppppppppppppppppppppppppppppppppppppppppppppppppppppppppppppppppppppppppppppppp>>>aaaaaaaaaaa",
"aaaaaaaaaaaa>>>>ppppppppppppppppppppppppppppppppppppppppppppppppppppppppppppppppppppppppppppppppppppppppppppppppp>>>>aaaaaaaaaaa",
"aaaaaaaaaaaaa>>>ppppppppppppppppppppppppppppppppppppppppppppppppppppppppppppppppppppppppppppppppppppppppppppppppp>>>aaaaaaaaaaaa",
"aaaaaaaaaaaaaa>>>ppppppppppppppppppppppppppppppppppppppppppppppppppppppppppppppppppppppppppppppppppppppppppppppp>>>aaaaaaaaaaaaa",
"aaaaaaaaaaaaaaa>>>ppppppppppppppppppppppppppppppppppppppppppppppppppppppppppppppppppppppppppppppppppppppppppppp>>>aaaaaaaaaaaaaa",
"aaaaaaaaaaaaaaaa>>>ppppppppppppppppppppppppppppppppppppppppppppppppppppppppppppppppppppppppppppppppppppppppppp>>>aaaaaaaaaaaaaaa",
"aaaaaaaaaaaaaaaa>>>>ppppppppppppppppppppppppppppppppppppppppppppppppppppppppppppppppppppppppppppppppppppppppp>>>>aaaaaaaaaaaaaaa",
"aaaaaaaaaaaaaaaaa>>>>ppppppppppppppppppppppppppppppppppppppppppppppppppppppppppppppppppppppppppppppppppppppp>>>>aaaaaaaaaaaaaaaa",
"aaaaaaaaaaaaaaaaaa>>>>ppppppppppppppppppppppppppppppppppppppppppppppppppppppppppppppppppppppppppppppppppppp>>>>aaaaaaaaaaaaaaaaa",
"aaaaaaaaaaaaaaaaaaa>>>>ppppppppppppppppppppppppppppppppppppppppppppppppppppppppppppppppppppppppppppppppppp>>>>aaaaaaaaaaaaaaaaaa",
"aaaaaaaaaaaaaaaaaaaa>>>>ppppppppppppppppppppppppppppppppppppppppppppppppppppppppppppppppppppppppppppppppp>>>>aaaaaaaaaaaaaaaaaaa",
"aaaaaaaaaaaaaaaaaaaaa>>>>ppppppppppppppppppppppppppppppppppppppppppppppppppppppppppppppppppppppppppppppp>>>>aaaaaaaaaaaaaaaaaaaa",
"aaaaaaaaaaaaaaaaaaaaaaa>>>ppppppppppppppppppppppppppppppppppppppppppppppppppppppppppppppppppppppppppppp>>>>aaaaaaaaaaaaaaaaaaaaa",
"aaaaaaaaaaaaaaaaaaaaaaaa>>>>ppppppppppppppppppppppppppppppppppppppppppppppppppppppppppppppppppppppppp>>>>aaaaaaaaaaaaaaaaaaaaaaa",
"aaaaaaaaaaaaaaaaaaaaaaaaa>>>>ppppppppppppppppppppppppppppppppppppppppppppppppppppppppppppppppppppppp>>>>aaaaaaaaaaaaaaaaaaaaaaaa",
"aaaaaaaaaaaaaaaaaaaaaaaaaa>>>>ppppppppppppppppppppppppppppppppppppppppppppppppppppppppppppppppppppp>>>>aaaaaaaaaaaaaaaaaaaaaaaaa",
"aaaaaaaaaaaaaaaaaaaaaaaaaaaa>>>>ppppppppppppppppppppppppppppppppppppppppppppppppppppppppppppppppp>>>>aaaaaaaaaaaaaaaaaaaaaaaaaaa",
"aaaaaaaaaaaaaaaaaaaaaaaaaaaaa>>>>>ppppppppppppppppppppppppppppppppppppppppppppppppppppppppppppp>>>>>aaaaaaaaaaaaaaaaaaaaaaaaaaaa",
"aaaaaaaaaaaaaaaaaaaaaaaaaaaaaaa>>>>ppppppppppppppppppppppppppppppppppppppppppppppppppppppppppp>>>>aaaaaaaaaaaaaaaaaaaaaaaaaaaaaa",
"aaaaaaaaaaaaaaaaaaaaaaaaaaaaaaaa>>>>>>ppppppppppppppppppppppppppppppppppppppppppppppppppppp>>>>>>aaaaaaaaaaaaaaaaaaaaaaaaaaaaaaa",
"aaaaaaaaaaaaaaaaaaaaaaaaaaaaaaaaaa>>>>>>ppppppppppppppppppppppppppppppppppppppppppppppppp>>>>>>aaaaaaaaaaaaaaaaaaaaaaaaaaaaaaaaa",
"aaaaaaaaaaaaaaaaaaaaaaaaaaaaaaaaaaaa>>>>>>ppppppppppppppppppppppppppppppppppppppppppppp>>>>>>aaaaaaaaaaaaaaaaaaaaaaaaaaaaaaaaaaa",
"aaaaaaaaaaaaaaaaaaaaaaaaaaaaaaaaaaaaaa>>>>>>>ppppppppppppppppppppppppppppppppppppppp>>>>>>>aaaaaaaaaaaaaaaaaaaaaaaaaaaaaaaaaaaaa",
"aaaaaaaaaaaaaaaaaaaaaaaaaaaaaaaaaaaaaaaa>>>>>>>>ppppppppppppppppppppppppppppppppp>>>>>>>>aaaaaaaaaaaaaaaaaaaaaaaaaaaaaaaaaaaaaaa",
"aaaaaaaaaaaaaaaaaaaaaaaaaaaaaaaaaaaaaaaaaaa>>>>>>>>>ppppppppppppppppppppppppp>>>>>>>>>aaaaaaaaaaaaaaaaaaaaaaaaaaaaaaaaaaaaaaaaaa",
"aaaaaaaaaaaaaaaaaaaaaaaaaaaaaaaaaaaaaaaaaaaaaa>>>>>>>>>>>>>ppppppppppp>>>>>>>>>>>>>aaaaaaaaaaaaaaaaaaaaaaaaaaaaaaaaaaaaaaaaaaaaa",
"aaaaaaaaaaaaaaaaaaaaaaaaaaaaaaaaaaaaaaaaaaaaaaaaaa>>>>>>>>>>>>>>>>>>>>>>>>>>>>>aaaaaaaaaaaaaaaaaaaaaaaaaaaaaaaaaaaaaaaaaaaaaaaaa",
"aaaaaaaaaaaaaaaaaaaaaaaaaaaaaaaaaaaaaaaaaaaaaaaaaaaaaaa>>>>>>>>>>>>>>>>>>>aaaaaaaaaaaaaaaaaaaaaaaaaaaaaaaaaaaaaaaaaaaaaaaaaaaaaa",
"aaaaaaaaaaaaaaaaaaaaaaaaaaaaaaaaaaaaaaaaaaaaaaaaaaaaaaaaaaaaaaaaaaaaaaaaaaaaaaaaaaaaaaaaaaaaaaaaaaaaaaaaaaaaaaaaaaaaaaaaaaaaaaaa"
};
