/* XPM */
static char *_5136_653b80819e4b9c19000776b6a475e90f23e71ed610547cc908cc1b93284f4540[] = {
/* columns rows colors chars-per-pixel */
"32 32 220 2 ",
"   c black",
".  c #000002",
"X  c #040100",
"o  c #000005",
"O  c #000205",
"+  c #000206",
"@  c #050507",
"#  c #060606",
"$  c #0A0705",
"%  c #000208",
"&  c #00060B",
"*  c #040408",
"=  c #070708",
"-  c #06070A",
";  c #06090C",
":  c #07090C",
">  c #0C090A",
",  c #0C0B0A",
"<  c #090C0F",
"1  c #14110E",
"2  c #0B0E10",
"3  c #0E1114",
"4  c #1B1611",
"5  c #191613",
"6  c #10161D",
"7  c #13181D",
"8  c #201B16",
"9  c #211E1F",
"0  c #2D251F",
"q  c #151C23",
"w  c #1E252D",
"e  c #1F272E",
"r  c gray15",
"t  c #26282B",
"y  c #2D2E2F",
"u  c #302722",
"i  c #332A23",
"p  c #322A24",
"a  c #342B24",
"s  c #293035",
"d  c #413831",
"f  c #453D34",
"g  c #4D453C",
"h  c #303941",
"j  c #333B43",
"k  c #374047",
"l  c #3A444B",
"z  c #564E46",
"x  c #554E49",
"c  c #53504B",
"v  c #4E565E",
"b  c #555557",
"n  c #5A5550",
"m  c #525A5F",
"M  c #5A5F63",
"N  c #6C6761",
"B  c #60676F",
"V  c #666B6F",
"C  c #6A6A6A",
"Z  c #706C66",
"A  c #76726C",
"S  c #787168",
"D  c #7E756C",
"F  c #7E766D",
"G  c #6C6F71",
"H  c #82786E",
"J  c #857C72",
"K  c #807D78",
"L  c #878889",
"P  c #8B8A89",
"I  c #918A82",
"U  c #868D93",
"Y  c #848C95",
"T  c #8E949B",
"R  c #929090",
"E  c gray58",
"W  c gray59",
"Q  c #979797",
"!  c #92959A",
"~  c #989898",
"^  c gray60",
"/  c #9A9A9A",
"(  c #9B9B9B",
")  c gray61",
"_  c #9D9D9D",
"`  c gray62",
"'  c #9F9F9F",
"]  c #A39D96",
"[  c #A19D9A",
"{  c #A7A19A",
"}  c #ABA49D",
"|  c #9CA0A4",
" . c #9FA4A9",
".. c #A0A0A0",
"X. c gray63",
"o. c #A2A2A2",
"O. c gray64",
"+. c #A4A4A4",
"@. c #A5A5A5",
"#. c gray65",
"$. c #A7A7A7",
"%. c #A9A4A0",
"&. c #A0A3A8",
"*. c gray66",
"=. c #A9A9A9",
"-. c #AAAAAA",
";. c gray67",
":. c #ACACAC",
">. c gray68",
",. c #AEAEAE",
"<. c #AEAFAF",
"1. c #AFAFAF",
"2. c #A7ADB3",
"3. c #AEB1B2",
"4. c #AFB6BC",
"5. c #AFB6BD",
"6. c gray69",
"7. c #B1B1B1",
"8. c #B3B3B1",
"9. c #B2B2B2",
"0. c gray70",
"q. c #B1B3B6",
"w. c #B2B5B7",
"e. c #B4B4B4",
"r. c gray71",
"t. c #B6B6B6",
"y. c #B7B7B7",
"u. c #B9B6B4",
"i. c #B0B7BD",
"p. c #B0B7BE",
"a. c #B4B9BE",
"s. c #B5BABE",
"d. c gray72",
"f. c #B9B9B9",
"g. c #BBBAB9",
"h. c gray73",
"j. c #BBBBBA",
"k. c #BBBBBB",
"l. c #BDBBBA",
"z. c #BCBCBC",
"x. c gray74",
"c. c #BFBDBC",
"v. c #BCBDBE",
"b. c #C2C0BF",
"n. c #C0C0C0",
"m. c #C1C1C1",
"M. c #C1C2C3",
"N. c gray76",
"B. c #C3C2C2",
"V. c #C2C2C3",
"C. c #C3C3C3",
"Z. c #C4C3C3",
"A. c #C3C3C4",
"S. c #C3C4C4",
"D. c gray77",
"F. c #C5C4C4",
"G. c #C5C5C4",
"H. c #C4C4C5",
"J. c #C4C5C5",
"K. c #C5C5C5",
"L. c #C6C6C5",
"P. c #C5C5C6",
"I. c #C5C6C6",
"U. c #C6C6C6",
"Y. c #C6C6C7",
"T. c #C6C7C7",
"R. c gray78",
"E. c #C8C7C6",
"W. c #C9C8C5",
"Q. c #C6C7C9",
"!. c #C7CBCD",
"~. c #C8C8C8",
"^. c #C9C9C8",
"/. c #C8C9C9",
"(. c gray79",
"). c #CACAC9",
"_. c #CACACA",
"`. c #CCCBCA",
"'. c #CCCBCB",
"]. c #CBCCCE",
"[. c #CCCCCD",
"{. c #CECECE",
"}. c #CECFCF",
"|. c #D1D0CE",
" X c #CDCFD0",
".X c #CED0D1",
"XX c #CFD1D3",
"oX c #CBD0D5",
"OX c #D0D0D0",
"+X c #D0D1D1",
"@X c gray82",
"#X c #D3D2D1",
"$X c #D2D2D2",
"%X c #D3D3D4",
"&X c gray83",
"*X c #D5D5D5",
"=X c gray84",
"-X c #D7D7D7",
";X c #DED9D5",
":X c gainsboro",
">X c #DDDDDD",
",X c #DFDFDF",
"<X c #E1E1E1",
"1X c #E2E2E2",
"2X c gray89",
"3X c #E6E6E6",
"4X c #E7E7E7",
"5X c gray92",
"6X c #EEEEEE",
"7X c #EFEFEF",
"8X c gray95",
"9X c #F4F4F4",
"0X c gray96",
"qX c #F6F6F6",
"wX c gray97",
"eX c #F8F8F8",
"rX c #FBFBFB",
"tX c gray99",
"yX c #FEFEFE",
"uX c white",
/* pixels */
"uXuXuXuXuXuXuXuXuXuXuXuXwX&Xr.' E ' r.@XwXuXuXuXuXuXuXuXuXuXuXuX",
"uXuXuXuXuXuXuXuXuXuX=X6...+.;.7.e.9.;.O...6.=XyXuXuXuXuXuXuXuXuX",
"uXuXuXuXuXuXuXuX$XX.' 0.N.R.~.R.U.R.~.R.N.e.' ' @XuXuXuXuXuXuXuX",
"uXuXuXuXuXuX9X;./ h.(.K.C.C.C.C.C.C.C.C.C.K.(.k.) ;.9XuXuXuXuXuX",
"uXuXuXuXuX4X( :.(.K.C.C.C.C.C.C.C.C.C.C.C.C.C.K.(.>.( 4XuXuXuXuX",
"uXuXuXuX4XQ d.~.C.C.C.C.C.C.C.C.C.C.C.C.C.C.C.C.C.~.d.W 3XuXuXuX",
"uXuXuX0X/ d.R.C.C.C.C.C.C.C.C.C.C.C.C.C.C.C.C.C.C.C.R.f./ 8XuXuX",
"uXuXuX>.>.~.C.C.C.C.C.C.C.C.C.C.C.C.C.C.C.C.C.C.C.C.C.~.,.-.uXuX",
"uXuX*X) (.C.C.C.C.C.C.C.C.C.C.C.C.C.C.C.C.C.C.C.C.C.C.C.(._ $XuX",
"uXrXX.z.D.C.C.C.C.C.C.C.C.C.C.C.C.C.C.C.C.C.C.C.C.C.C.C.D.x...rX",
"uX-X..(.C.C.C.C.C.C.C.C.C.C.C.C.C.C.C.C.C.C.C.C.C.C.C.C.C.(...&X",
"uX7.e.K.C.C.C.C.C./.(.Z.D.K.D.D.K.K.C.S.K.K.K.D.C.C.C.C.C.K.e.6.",
"wXO.C.C.C.C.N.I.{.8.<.V.Y.R.L.K.R.R.C.H.R.R.R._.@XG.N.C.C.C.C.@.",
"@X+.~.C.C.C.J.W.n , = | x r m K r t a.I r r r y V Q.G.C.C.C.~.=.",
"r.;.~.C.C.C.@XS       ! i   h N     5.H           B +XC.C.C.R.1.",
"..9.R.C.C.A.|.d     M c.p   k Z   + i.J   . G 8   e !.F.C.C.R.e.",
"E e.R.C.C.C.#Xz     Y ;X0   k Z   + i.J   * b 1   j  XZ.C.C.R.e.",
"X.6.R.C.C.N..X} $   w (.u   l A   O 4.J   - >   <  .'.C.C.C.R.0.",
"f.=.~.C.C.P.j.[ 4   & w.a   s c   o p.J   : 9   ; 2.`.C.C.C.R.,.",
":XO.R.C.C.].]       q XXg         6 oXD   % C X   v %XC.C.C.~.$.",
"tX+.n.C.C.].{     3 T =X%.5     2 U >XF # @ &.f # 7 s.E.C.C.m.#.",
"uXd.1.U.C.D.b.R L q.{.m.[.u.P L 3.{.D.g.>.>.M.l.>.-.v.D.C.U.1.y.",
"uX1X` ~.C.B.D.}.OX^.N.C.N.~.OXOX(.B.N.I._._.D.T._.).D.C.C.~._ ,X",
"uXuX*.t.U.C.C.C.C.C.C.C.C.C.C.C.C.C.C.C.C.C.C.C.C.C.C.C.K.t.$.uX",
"uXuX2X~ U.C.C.C.C.C.C.C.C.C.C.C.C.C.C.C.C.C.C.C.C.C.C.C.R.~ <XuX",
"uXuXuXz.o.(.C.C.C.C.C.C.C.C.C.C.C.C.C.C.C.C.C.C.C.C.C.(.O.h.uXuX",
"uXuXuXyX*.;.(.C.C.C.C.C.C.C.C.C.C.C.C.C.C.C.C.C.C.C.(.>.@.tXuXuX",
"uXuXuXuXqXo.=.(.C.C.C.C.C.C.C.C.C.C.C.C.C.C.C.C.C.(.-.X.qXuXuXuX",
"uXuXuXuXuXeX:.` D.R.C.C.C.C.C.C.C.C.C.C.C.C.C.R.D.' -.wXuXuXuXuX",
"uXuXuXuXuXuXuXD.^ >.K.~.D.C.C.C.C.C.C.C.D.~.K.,.^ C.uXuXuXuXuXuX",
"uXuXuXuXuXuXuXuX5X7.) #.t.N.U.R.~.R.U.N.y.#.( 6.5XuXuXuXuXuXuXuX",
"uXuXuXuXuXuXuXuXuXuX7XR.>.#.$.;.;.;.$.#.,.U.6XuXuXuXuXuXuXuXuXuX"
};
